<?xml version="1.0"?>
<svg xmlns="http://www.w3.org/2000/svg" id="filled_outline" data-name="filled outline" viewBox="0 0 512 512" width="512" height="512"><path d="M416,208a184,184,0,1,1-368,0q0-8.08521.69-16A184.00331,184.00331,0,0,1,416,208Z" style="fill:#9ce6ed"/><path d="M416,208a183.87154,183.87154,0,0,1-87.42,156.64014L288,320V256H256l-32-48,32-24h40l24-32-16-40,50.05-41.69995A183.56679,183.56679,0,0,1,416,208Z" style="fill:#02c26a"/><rect x="296" y="400" width="64" height="80" style="fill:#4367e0"/><rect x="360" y="336" width="64" height="144" style="fill:#4976f2"/><rect x="424" y="256" width="64" height="224" style="fill:#548aff"/><path d="M304.96,39.04,248,96v48l-48,32-32-32H128V112L90.99,89.79A184.15655,184.15655,0,0,1,304.96,39.04Z" style="fill:#02c26a"/><path d="M208,264l-32,24v95.31982A184.0755,184.0755,0,0,1,48,208q0-8.08521.69-16H96l24,32h64Z" style="fill:#02c26a"/><path d="M104,272c0-8.83656-17.90861-16-40-16s-40,7.16344-40,16V472c0,8.83656,17.90861,16,40,16s40-7.16344,40-16Z" style="fill:#ffc431"/><ellipse cx="64" cy="272" rx="40" ry="16" style="fill:#ffd873"/><path d="M184,352c0-8.83656-17.90861-16-40-16s-40,7.16344-40,16V472c0,8.83656,17.90861,16,40,16s40-7.16344,40-16Z" style="fill:#ffc431"/><ellipse cx="144" cy="352" rx="40" ry="16" style="fill:#ffd873"/><path d="M264,392c0-8.83656-17.90861-16-40-16s-40,7.16344-40,16v80c0,8.83656,17.90861,16,40,16s40-7.16344,40-16Z" style="fill:#ffc431"/><ellipse cx="224" cy="392" rx="40" ry="16" style="fill:#ffd873"/><path d="M488,248H424a8,8,0,0,0-8,8v72H360a8,8,0,0,0-8,8v56H296a8,8,0,0,0-8,8v72H272V392c0-4.498-2.17529-12.91406-16.74463-18.74121C246.77783,369.86719,235.67773,368,224,368s-22.77783,1.86719-31.25537,5.25879c-.25494.10205-.49725.20654-.74463.31006V352c0-4.498-2.17529-12.91406-16.74463-18.74121C166.77783,329.86719,155.67773,328,144,328s-22.77783,1.86719-31.25537,5.25879c-.25494.10205-.49725.20654-.74463.31006V272c0-4.498-2.17529-12.91406-16.74463-18.74121C86.77783,249.86719,75.67773,248,64,248s-22.77783,1.86719-31.25537,5.25879C18.17529,259.08594,16,267.502,16,272V472c0,4.498,2.17529,12.91406,16.74463,18.74121C41.22217,494.13281,52.32227,496,64,496s22.77783-1.86719,31.25537-5.25879A38.53428,38.53428,0,0,0,104,486a38.53428,38.53428,0,0,0,8.74463,4.74121C121.22217,494.13281,132.32227,496,144,496s22.77783-1.86719,31.25537-5.25879A38.53428,38.53428,0,0,0,184,486a38.53428,38.53428,0,0,0,8.74463,4.74121C201.22217,494.13281,212.32227,496,224,496s22.77783-1.86719,31.25537-5.25879A43.5138,43.5138,0,0,0,260.94366,488H488a8,8,0,0,0,8-8V256A8,8,0,0,0,488,248ZM32,410.43115c.24738.10352.48969.208.74463.31006C41.22217,414.13281,52.32227,416,64,416s22.77783-1.86719,31.25537-5.25879c.25494-.10205.49725-.20654.74463-.31006v21.26612C94.61029,434.17432,83.54132,440,64,440s-30.61029-5.82568-32-8.30273Zm0-40c.24738.10352.48969.208.74463.31006C41.22217,374.13281,52.32227,376,64,376s22.77783-1.86719,31.25537-5.25879c.25494-.10205.49725-.20654.74463-.31006v21.26612C94.61029,394.17432,83.54132,400,64,400s-30.61029-5.82568-32-8.30273Zm0-40c.24738.10352.48969.208.74463.31006C41.22217,334.13281,52.32227,336,64,336s22.77783-1.86719,31.25537-5.25879c.25494-.10205.49725-.20654.74463-.31006v21.26612C94.61029,354.17432,83.54132,360,64,360s-30.61029-5.82568-32-8.30273Zm0-40c.24738.10352.48969.208.74463.31006C41.22217,294.13281,52.32227,296,64,296s22.77783-1.86719,31.25537-5.25879c.25494-.10205.49725-.20654.74463-.31006v21.26612C94.61029,314.17432,83.54132,320,64,320s-30.61029-5.82568-32-8.30273ZM144,400c-19.54132,0-30.61029-5.82568-32-8.30273V370.43115c.24738.10352.48969.208.74463.31006C121.22217,374.13281,132.32227,376,144,376s22.77783-1.86719,31.25537-5.25879c.25494-.10205.49725-.20654.74463-.31006v21.26612C174.61029,394.17432,163.54132,400,144,400Zm-32,10.43115c.24738.10352.48969.208.74463.31006C121.22217,414.13281,132.32227,416,144,416s22.77783-1.86719,31.25537-5.25879c.25494-.10205.49725-.20654.74463-.31006v21.26612C174.61029,434.17432,163.54132,440,144,440s-30.61029-5.82568-32-8.30273Zm80,0c.24738.10352.48969.208.74463.31006C201.22217,414.13281,212.32227,416,224,416s22.77783-1.86719,31.25537-5.25879c.25494-.10205.49725-.20654.74463-.31006v21.26612C254.61029,434.17432,243.54132,440,224,440s-30.61029-5.82568-32-8.30273ZM224,384c18.82532,0,29.76691,5.40039,31.788,8.01123C253.70776,394.63281,242.75488,400,224,400s-29.70776-5.36719-31.788-7.98877C194.23309,389.40039,205.17468,384,224,384Zm-80-40c18.82532,0,29.76691,5.40039,31.788,8.01123C173.70776,354.63281,162.75488,360,144,360c-18.7818,0-29.73859-5.38232-31.79614-8C114.26141,349.38232,125.2182,344,144,344ZM64,264c18.82532,0,29.76691,5.40039,31.788,8.01123C93.70776,274.63281,82.75488,280,64,280s-29.70776-5.36719-31.788-7.98877C34.23309,269.40039,45.17468,264,64,264Zm0,216c-19.50684,0-30.57861-5.80762-32-8.292V450.43115c.24738.10352.48969.208.74463.31006C41.22217,454.13281,52.32227,456,64,456s22.77783-1.86719,31.25537-5.25879c.25494-.10205.49725-.20654.74463-.31006V471.708C94.57861,474.19238,83.50684,480,64,480Zm80,0c-19.54132,0-30.61029-5.82568-32-8.30273V450.43115c.24738.10352.48969.208.74463.31006C121.22217,454.13281,132.32227,456,144,456s22.77783-1.86719,31.25537-5.25879c.25494-.10205.49725-.20654.74463-.31006V471.708C174.57861,474.19238,163.50684,480,144,480Zm80,0c-19.50684,0-30.57861-5.80762-32-8.292V450.43115c.24738.10352.48969.208.74463.31006C201.22217,454.13281,212.32227,456,224,456s22.77783-1.86719,31.25537-5.25879c.25494-.10205.49725-.20654.74463-.31006V471.708C254.57861,474.19238,243.50684,480,224,480Zm80-72h48v64H304Zm64-64h48V472H368Zm64,128V264h48V472Z"/><rect x="224" y="336" width="16" height="16"/><path d="M256,336v16h40a8.00035,8.00035,0,0,0,5.65674-2.34277L464,187.314V200h16V168a8.00008,8.00008,0,0,0-8-8H440v16h12.686l-160,160Z"/><path d="M362.126,66.82031A191.42794,191.42794,0,0,0,232,16C126.13086,16,40,102.13086,40,208a194.4809,194.4809,0,0,0,1.61816,25.0332l15.86622-2.0664A178.42561,178.42561,0,0,1,56,208c0-2.68164.07031-5.34717.18964-8H92l21.6001,28.7998A7.99927,7.99927,0,0,0,120,232h59.4707l17.957,29.92871-26.22753,19.6709A8.0009,8.0009,0,0,0,168,288v24h16V292l28.7998-21.59961a8.0005,8.0005,0,0,0,2.06006-10.5166l-24-40A8.00072,8.00072,0,0,0,184,216H124l-21.6001-28.7998A7.99927,7.99927,0,0,0,96,184H57.64325A175.16422,175.16422,0,0,1,92.916,100.2793L120,116.5293V144a8.00008,8.00008,0,0,0,8,8h36.686l29.65722,29.65723a7.99989,7.99989,0,0,0,10.09423.999l48-32A7.99941,7.99941,0,0,0,256,144V99.31348l50.7074-50.707a175.59533,175.59533,0,0,1,34.873,21.66308l-42.702,35.585a7.99927,7.99927,0,0,0-2.30615,9.11621l14.33007,35.82618L292,176H256a8.00222,8.00222,0,0,0-4.7998,1.59961l-32,24a8,8,0,0,0-1.85645,10.83789l32,48A7.99943,7.99943,0,0,0,256,264h24v48h16V256a8.00008,8.00008,0,0,0-8-8H260.28125l-25.42676-38.14062L258.6665,192H296a7.99927,7.99927,0,0,0,6.3999-3.2002l24-32a7.99806,7.99806,0,0,0,1.02783-7.7705l-13.8413-34.6045,40.18634-33.48852a175.349,175.349,0,0,1,53.57049,111.75024l15.94141-1.373A191.3713,191.3713,0,0,0,362.126,66.82031ZM242.34326,90.34277A8.00076,8.00076,0,0,0,240,96v43.71875l-38.98047,25.9873-27.36279-27.36328A8.00035,8.00035,0,0,0,168,136H136V112a8.00091,8.00091,0,0,0-3.88428-6.86035L103.441,87.93481A175.9247,175.9247,0,0,1,290.654,42.032Z"/></svg>
