<svg xmlns="http://www.w3.org/2000/svg" viewBox="0 0 948.07 1191.42"><defs><style>.cls-1{fill:#a68d67;}</style></defs><g id="Layer_2" data-name="Layer 2"><g id="Icons"><path class="cls-1" d="M475.7,11.39S441.14,0,409.62,0c-27.9,0-65.47,11.39-65.47,11.39v225H475.7Z"/><path class="cls-1" d="M317.94,66.84,196,113a14.12,14.12,0,0,0-9.43,13V236.41H317.94Z"/><path class="cls-1" d="M628.8,317V78.36a14.25,14.25,0,0,0-10.72-13.48l-116.17-33V351l111.54-17.16C622.3,332.49,628.8,325.36,628.8,317Z"/><path class="cls-1" d="M781.9,310.54V194.27a14.13,14.13,0,0,0-9.43-13.05L655,136.72V351l112.61-23.82C776,325.42,781.9,318.51,781.9,310.54Z"/><path class="cls-1" d="M689,686.7c42-34.7,68.36-82.82,74-134.81l14.5-175.2H485.26L539,517l-87.4-100H311.17l-43.68-27.07H401.94c40.73,0,73.75-30.73,73.76-68.65v-58H189.91c-28.27,33.43-33.71,47.72-62,81.15L179.83,570c10.72,41.29,34.74,78.54,68.85,106.76l7.44,6.15,122.2,374.24L414.68,824l61,367.47,61.3-369,37.59,234.69L689,686.7ZM494.34,649,475.7,806.42,457.05,649,333.76,672.62l141.94-69,141.93,69Z"/><path class="cls-1" d="M691.84,902.67a105.58,105.58,0,1,0,149.31,0A105.59,105.59,0,0,0,691.84,902.67Zm148.69,109.24c-5.47,10.52-13.44,19.68-23.34,25.58,5.86-9.87,10.54-19.55,13.57-29.62a103.77,103.77,0,0,0,4.61-30.54c0-1.85-.08-3.7-.18-5.54a9.93,9.93,0,0,1-1.12.75c-9,5.19-23.61-3.27-32.63-18.9s-9.05-32.52-.05-37.72c4.39-2.54,10.13-1.81,15.9,1.42l-.1-.17c9.91,5.88,17.89,15.05,23.36,25.57a76,76,0,0,1,0,69.17Z"/><path class="cls-1" d="M854.22,668.43a93.85,93.85,0,1,0,93.85,93.85A93.85,93.85,0,0,0,854.22,668.43Zm43.07,154c5.86-9.87,10.54-19.55,13.57-29.62a104.1,104.1,0,0,0,4.61-30.54c0-2.1-.09-4.2-.22-6.3a11.35,11.35,0,0,1-1.61,1.13c-9,5.2-23.61-3.26-32.64-18.9s-9-32.52,0-37.71c4.51-2.61,10.45-1.78,16.37,1.68l0-.06c9.9,5.89,17.89,15,23.35,25.57a76,76,0,0,1,0,69.17C915.16,807.38,907.18,816.55,897.29,822.44Z"/><path class="cls-1" d="M862.08,620.68a77.41,77.41,0,0,0-64.76-131.51L788,582.31a214.52,214.52,0,0,1-12.67,54.11A77.45,77.45,0,0,0,862.08,620.68ZM825.16,514.14c3.68-2.8,9.52-1.8,15.17,2a55.79,55.79,0,0,1,18.58,18.71,59.73,59.73,0,0,1,0,62.18A54.6,54.6,0,0,1,836,618.07c2.78-4.36,5.42-8.53,7.66-12.81a95.17,95.17,0,0,0,5.76-12.88,77.4,77.4,0,0,0,4.75-26.44,76.42,76.42,0,0,0-2-17.05c-.12.11-.23.23-.35.32-5.58,4.24-16.06-.18-23.42-9.87S819.58,518.37,825.16,514.14Z"/><path class="cls-1" d="M166,639.14a215.48,215.48,0,0,1-12.62-37.09L126.23,489.88A77.43,77.43,0,1,0,166,639.14Zm-76.8-104.3a55.77,55.77,0,0,1,18.38-18.59c5.71-3.89,11.62-4.94,15.35-2.11,5.58,4.23,4.13,15.52-3.22,25.2s-17.84,14.11-23.42,9.87c-.12-.09-.22-.2-.33-.3a76.24,76.24,0,0,0-2,17,77.4,77.4,0,0,0,4.75,26.44,96.36,96.36,0,0,0,5.75,12.88c2.25,4.28,4.89,8.45,7.67,12.81A54.55,54.55,0,0,1,89.18,597a59.73,59.73,0,0,1,0-62.18Z"/><path class="cls-1" d="M106.92,902.67a105.58,105.58,0,1,0,149.31,0A105.59,105.59,0,0,0,106.92,902.67Zm39.31,51c-9,15.63-23.64,24.09-32.63,18.9-.26-.15-.5-.31-.74-.47-.09,1.75-.16,3.51-.16,5.26a103.77,103.77,0,0,0,4.61,30.54c3,10.07,7.71,19.75,13.56,29.62-9.89-5.9-17.86-15.06-23.33-25.58a76,76,0,0,1,0-69.17,67,67,0,0,1,15.24-19.66c8-7.67,17.17-10.83,23.52-7.16C155.28,921.12,155.26,938,146.23,953.64Z"/><path class="cls-1" d="M187.69,762.28a93.85,93.85,0,1,0-93.84,93.85A93.84,93.84,0,0,0,187.69,762.28Zm-121-24.07c-9,15.64-23.64,24.1-32.64,18.9a11.51,11.51,0,0,1-1.23-.83q-.18,3-.2,6a103.77,103.77,0,0,0,4.61,30.54c3,10.07,7.71,19.75,13.57,29.62-9.89-5.89-17.87-15.06-23.34-25.58a76,76,0,0,1,0-69.17A66.62,66.62,0,0,1,44,706.87c7.8-7.1,16.55-9.92,22.68-6.37C75.72,705.69,75.7,722.58,66.67,738.21Z"/></g></g></svg>