<svg xmlns="http://www.w3.org/2000/svg" viewBox="0 0 1130.81 1159.98"><defs><style>.cls-1{fill:#a68d67;}</style></defs><g id="Layer_2" data-name="Layer 2"><g id="Icons"><path class="cls-1" d="M565.41,208.15h.12l102.34-97.89S651.16,41.27,565.53,0h-.24C479.65,41.27,463,110.26,463,110.26l102.34,97.89Z"/><path class="cls-1" d="M1124.74,726.81c-38.78,51.43-105.28.21-105.28.21l-45.08-32.26a.17.17,0,0,1-.06-.18l14.16-44.93a276.61,276.61,0,0,1,38.85-77.79l14.75-20.61a.16.16,0,0,1,.13-.07l39.78-1.29c.06,0,.09,0,.11,0,.56-1.29,19.27-45.72-25.47-77.73l-.12-.09c-44.39-31.76-80.73,0-81.79,1-.05,0,0,.06,0,.12l11.62,38.07a.14.14,0,0,1,0,.14L971.57,532a276.27,276.27,0,0,1-61.09,61.87l-38,27.91a.17.17,0,0,1-.19,0l-15.4-11a.16.16,0,0,1-.06-.17c47.71-200.54-117.35-247-221.44-256.72a.17.17,0,0,1-.14-.15L623.38,192.5a.17.17,0,0,0-.28-.11l-57.58,56.38a.17.17,0,0,1-.23,0l-57.58-56.38a.16.16,0,0,0-.27.11L495.52,353.68a.15.15,0,0,1-.14.15C391.29,363.56,226.24,410,274,610.55a.18.18,0,0,1-.06.17l-15.41,11a.17.17,0,0,1-.19,0l-38-27.91A276.27,276.27,0,0,1,159.24,532L144.5,511.35a.17.17,0,0,1,0-.14l11.62-38.07c0-.06.06-.08,0-.12-1.06-.95-37.41-32.74-81.79-1l-.13.09c-44.74,32-26,76.44-25.47,77.73,0,.06,0,0,.12,0l39.78,1.29a.17.17,0,0,1,.13.07l14.74,20.61a276.08,276.08,0,0,1,38.85,77.79l14.16,44.93a.16.16,0,0,1-.06.18L111.35,727s-66.5,51.22-105.28-.21L0,733.17s40,145,158.73,60.06L350.94,655.7s65.07-50.08,104-1.35a.3.3,0,0,1,0,.08l95.26,435.73-9.57,9.57-176-423.31a.17.17,0,0,0-.25-.07L289.22,728.9a.16.16,0,0,0,0,.22L422.67,958.74a.16.16,0,0,1-.26.19L248.16,758.47a.16.16,0,0,0-.22,0l-74,54.26a.17.17,0,0,0,0,.26l391.38,347h.26L956.92,813a.18.18,0,0,0,0-.26l-74-54.26a.16.16,0,0,0-.22,0L708.41,958.93a.17.17,0,0,1-.27-.19l133.5-229.62a.17.17,0,0,0,0-.22l-75.25-52.55a.16.16,0,0,0-.24.07l-176,423.31-9.57-9.57,95.26-435.73s0,0,0-.08c38.94-48.73,104,1.35,104,1.35l192.2,137.53c118.74,85,158.73-60.06,158.73-60.06ZM827.25,589.48c-76.38-54.66-120.15-14.13-141.68,21.73a.15.15,0,0,1-.27-.12l25.78-117.94c0-.08,0-.14,0-.16-2.17-.75-58.46-20-114.18-12.9a.18.18,0,0,0-.15.16L565.57,820.52a.17.17,0,0,1-.33,0L534.09,480.25a.17.17,0,0,0-.14-.16c-55.72-7.07-112,12.15-114.19,12.9-.07,0-.05.08,0,.16l25.78,117.94a.15.15,0,0,1-.27.12c-21.52-35.86-65.29-76.39-141.68-21.73l-6.82,4.89c1.81-51.27,35.52-145.88,260.07-145.88H574c224.85,0,258.41,94.66,260.13,145.92Z"/></g></g></svg>