<svg xmlns="http://www.w3.org/2000/svg" viewBox="0 0 1003.95 1229.04"><defs><style>.cls-1{fill:#a68d67;}</style></defs><g id="Layer_2" data-name="Layer 2"><g id="Icons"><path class="cls-1" d="M864.87,523.35c132.71,225.36,32.23,382.5,32.23,382.5,5.41-220.11-132.76-290.36-132.76-290.36h0a243.54,243.54,0,0,1,47.56,145.37c0,131.28-101.84,237.7-227.46,237.7S360.19,892.1,357,760.86c-1.36-55,28.4-146.34,112.71-232.35,55.3-56.41,95.13-116.17,114.68-156C662.32,213.8,605.39,32.37,550,0c0,0,77,176.5-42.47,326.74-58.87,74-140.31,134.06-208.14,196.37-17.19,14.94-74.88,81.72-96.27,117.31C171,694,154.53,755.62,154.53,820.69c0,225.53,188.74,408.35,421.56,408.35S1004,1043.6,1004,818.07C1004,700.83,941.74,576.67,864.87,523.35Z"/><path class="cls-1" d="M625.67,719,582,517.71,538.22,719a26,26,0,0,1-19.91,19.65L304.67,786.3,518.31,834a26,26,0,0,1,19.91,19.65L582,1054.9l43.72-201.26A26,26,0,0,1,645.58,834L859.23,786.3,645.58,738.62A26,26,0,0,1,625.67,719Z"/><path class="cls-1" d="M781.31,418.33,764.1,339.08l-17.22,79.25a27.37,27.37,0,0,1-21,20.7l-84.46,18.84,84.46,18.85a27.36,27.36,0,0,1,21,20.7l17.22,79.25,17.21-79.25a27.36,27.36,0,0,1,21-20.7l84.46-18.85L802.27,439A27.37,27.37,0,0,1,781.31,418.33Z"/><path class="cls-1" d="M375,263.84c6.09,23.92-2.13,50.53-22.66,80.26-58.68,85-170.9,191.7-231.63,311.83-92,182-27.5,367.84,36.23,443.84,0,0-245-159.85-122.79-433.59,26-58.29,79.88-127.37,183.27-216.94,35.55-30.79,79.5-68.9,116.1-109.78C355.48,314.93,370.27,290.27,375,263.84Z"/></g></g></svg>