<svg xmlns="http://www.w3.org/2000/svg" viewBox="0 0 14.2 14.2"><defs><style>.cls-1{fill:#fff;}</style></defs><g id="Layer_2" data-name="Layer 2"><g id="Layer_1-2" data-name="Layer 1"><path id="Path_198" data-name="Path 198" class="cls-1" d="M6.31,3.16h4.74V4.73H6.31Zm0,3.15h4.74V7.89H6.31Zm0,3.16h4.74v1.58H6.31ZM3.16,3.16H4.73V4.73H3.16Zm0,3.15H4.73V7.89H3.16Zm0,3.16H4.73v1.58H3.16ZM13.49,0H.71A.71.71,0,0,0,0,.71H0V13.49a.76.76,0,0,0,.71.71H13.49a.83.83,0,0,0,.71-.71V.71A.76.76,0,0,0,13.49,0Zm-.86,12.63h-11v-11H12.63Z"/></g></g></svg>