<svg xmlns="http://www.w3.org/2000/svg" viewBox="0 0 17.52 12.74"><defs><style>.cls-1{fill:#fff;}</style></defs><g id="Layer_2" data-name="Layer 2"><g id="Layer_1-2" data-name="Layer 1"><path id="Path_157" data-name="Path 157" class="cls-1" d="M11.15,6.37A3.19,3.19,0,1,0,8,3.18a3.18,3.18,0,0,0,3.19,3.19Zm0-4.78a1.6,1.6,0,1,1-1.6,1.59A1.62,1.62,0,0,1,11.15,1.59Zm0,6.37C9,8,4.78,9,4.78,11.15v1.59H17.52V11.15C17.52,9,13.27,8,11.15,8ZM6.37,11.15c.17-.58,2.64-1.6,4.78-1.6s4.62,1,4.77,1.6ZM4,8.76V6.37H6.37V4.78H4V2.39H2.39V4.78H0V6.37H2.39V8.76Z"/></g></g></svg>