<svg xmlns="http://www.w3.org/2000/svg" viewBox="0 0 13.52 13.52"><defs><style>.cls-1{fill:#fff;}</style></defs><g id="Layer_2" data-name="Layer 2"><g id="Layer_1-2" data-name="Layer 1"><g id="battle"><g id="Group_39" data-name="Group 39"><path id="Path_168" data-name="Path 168" class="cls-1" d="M13.13,0h-1.2a.36.36,0,0,0-.28.12L4,7.8,5.72,9.56l7.69-7.68a.43.43,0,0,0,.11-.28V.4a.39.39,0,0,0-.39-.4Z"/><path id="Path_169" data-name="Path 169" class="cls-1" d="M1.58,10.19a1.23,1.23,0,0,0-.37.85,1.24,1.24,0,1,0,1.27,1.28A1.29,1.29,0,0,0,3.33,12L4,11.24,2.28,9.48Z"/><path id="Path_170" data-name="Path 170" class="cls-1" d="M7.32,9.08,9.08,7.32l.48.48L7.8,9.56Z"/><path id="Path_171" data-name="Path 171" class="cls-1" d="M4.44,6.2,6.2,4.44,1.88.12A.39.39,0,0,0,1.6,0H.4A.4.4,0,0,0,0,.4H0V1.6a.39.39,0,0,0,.12.28Z"/><path id="Path_172" data-name="Path 172" class="cls-1" d="M12.32,11a1.29,1.29,0,0,0-.38-.85l-.7-.71L9.48,11.24l.72.72a1.23,1.23,0,0,1,1.2,1.2,1.24,1.24,0,1,0,1.76-1.76,1.29,1.29,0,0,0-.85-.36Z"/><path id="Path_173" data-name="Path 173" class="cls-1" d="M11.71,7.33a.4.4,0,0,0-.56,0h0L7.33,11.15a.4.4,0,0,0,0,.56.39.39,0,0,0,.56,0l3.82-3.82a.39.39,0,0,0,0-.56Z"/><path id="Path_174" data-name="Path 174" class="cls-1" d="M2.37,7.33a.4.4,0,1,0-.56.56l3.82,3.82a.4.4,0,0,0,.56-.56Z"/></g></g></g></g></svg>