<svg xmlns="http://www.w3.org/2000/svg" viewBox="0 0 20.09 20.09"><defs><style>.cls-1{fill:#fff;}</style></defs><g id="Layer_2" data-name="Layer 2"><g id="Layer_1-2" data-name="Layer 1"><g id="target"><path id="Path_179" data-name="Path 179" class="cls-1" d="M19.8,9.75H18.45A8.33,8.33,0,0,0,16.78,5a.3.3,0,0,0-.4-.1.31.31,0,0,0-.1.41l0,0a7.76,7.76,0,0,1,1.55,4.38h-1a6.82,6.82,0,0,0-6.5-6.5v-1a7.76,7.76,0,0,1,5.23,2.29.31.31,0,0,0,.42,0,.29.29,0,0,0,0-.42,8.29,8.29,0,0,0-5.65-2.45V.29a.3.3,0,0,0-.59,0V1.64a8.37,8.37,0,0,0-5.7,2.51.3.3,0,0,0,0,.42.29.29,0,0,0,.41,0A7.81,7.81,0,0,1,9.75,2.23v1a6.82,6.82,0,0,0-6.5,6.5h-1A7.79,7.79,0,0,1,3.74,5.42.29.29,0,0,0,3.68,5a.3.3,0,0,0-.42.06h0A8.39,8.39,0,0,0,1.64,9.75H.29a.3.3,0,0,0,0,.59H1.64a8.42,8.42,0,0,0,8.11,8.11V19.8a.3.3,0,0,0,.59,0V18.45a8.42,8.42,0,0,0,8.11-8.11H19.8a.3.3,0,0,0,0-.59ZM10.05,3.84a6.21,6.21,0,1,1-6.21,6.21A6.22,6.22,0,0,1,10.05,3.84Zm-7.82,6.5h1a6.82,6.82,0,0,0,6.5,6.5v1A7.84,7.84,0,0,1,2.23,10.34Zm8.11,7.52v-1a6.82,6.82,0,0,0,6.5-6.5h1A7.84,7.84,0,0,1,10.34,17.86Z"/><path id="Path_180" data-name="Path 180" class="cls-1" d="M9.75,12.83V14.6a.3.3,0,1,0,.59,0h0V12.83a2.81,2.81,0,0,0,2.49-2.49H14.6a.3.3,0,1,0,0-.59H12.83a2.81,2.81,0,0,0-2.49-2.49V5.49a.3.3,0,1,0-.59,0h0V7.26A2.81,2.81,0,0,0,7.26,9.75H5.49a.3.3,0,1,0,0,.59H7.26A2.81,2.81,0,0,0,9.75,12.83Zm0-5V9a.3.3,0,0,0,.59,0h0V7.85a2.24,2.24,0,0,1,1.9,1.9H11.08a.29.29,0,0,0-.3.3.29.29,0,0,0,.29.29h1.17a2.22,2.22,0,0,1-1.9,1.9V11.08a.3.3,0,0,0-.29-.3.29.29,0,0,0-.3.3h0v1.16a2.22,2.22,0,0,1-1.9-1.9H9a.29.29,0,0,0,.3-.29A.3.3,0,0,0,9,9.75H7.85a2.22,2.22,0,0,1,1.9-1.9Z"/></g></g></g></svg>