<svg xmlns="http://www.w3.org/2000/svg" viewBox="0 0 21.5 17.92"><defs><style>.cls-1{fill:#fff;fill-rule:evenodd;}</style></defs><g id="Layer_2" data-name="Layer 2"><g id="Layer_1-2" data-name="Layer 1"><path id="iconmonstr-medical-6" class="cls-1" d="M16.94,10.75c-1.82,2.15-4.36,4.49-7.08,7.17C4.58,12.72,0,8.84,0,5,0-.47,7.27-1.76,9.86,2.65,12.42-1.72,19.71-.49,19.71,5a5.75,5.75,0,0,1-.44,2.13H13.64a.63.63,0,0,0-.55.32l-.72,1.3-2-4a.63.63,0,0,0-.84-.27.74.74,0,0,0-.23.2L7.57,7.17H6.47A1.81,1.81,0,1,0,6.47,9H8.23a.63.63,0,0,0,.51-.27l.89-1.25,2,4.08a.62.62,0,0,0,.84.28.58.58,0,0,0,.26-.23L14.32,9H21.5v1.79Z"/></g></g></svg>