<svg xmlns="http://www.w3.org/2000/svg" viewBox="0 0 21.14 21.14"><defs><style>.cls-1{fill:none;}.cls-2{fill:#fff;}</style></defs><g id="Layer_2" data-name="Layer 2"><g id="Layer_1-2" data-name="Layer 1"><g id="help_outline_black_24dp" data-name="help outline black 24dp"><path id="Path_126" data-name="Path 126" class="cls-1" d="M0,0H21.14V21.14H0Z"/><path id="Path_127" data-name="Path 127" class="cls-2" d="M9.72,15.67h1.7V14H9.72Zm.85-13.6a8.5,8.5,0,1,0,8.5,8.5h0A8.49,8.49,0,0,0,10.57,2.07Zm0,15.3a6.8,6.8,0,1,1,6.8-6.8h0A6.82,6.82,0,0,1,10.57,17.37Zm0-11.9a3.4,3.4,0,0,0-3.4,3.39h1.7a1.7,1.7,0,0,1,3.4,0c0,1.7-2.55,1.49-2.55,4.25h1.7C11.42,11.21,14,11,14,8.87A3.4,3.4,0,0,0,10.57,5.47Z"/></g></g></g></svg>