<svg xmlns="http://www.w3.org/2000/svg" viewBox="0 0 20.32 14.22"><defs><style>.cls-1{fill:#fff;}</style></defs><g id="Layer_2" data-name="Layer 2"><g id="Layer_1-2" data-name="Layer 1"><g id="inbox"><g id="Group_154" data-name="Group 154"><path id="Path_233" data-name="Path 233" class="cls-1" d="M20.19,5.8,18,1.29A2.29,2.29,0,0,0,15.88,0H4.42A2.26,2.26,0,0,0,2.35,1.29L.11,5.78A1.05,1.05,0,0,0,0,6.21v6.07a1.94,1.94,0,0,0,1.94,1.94H18.38a1.94,1.94,0,0,0,1.94-1.94h0v-6A1.08,1.08,0,0,0,20.19,5.8Zm-6.11-.54a1,1,0,0,0-.95.77,3.13,3.13,0,0,1-3,2.5,3.09,3.09,0,0,1-3-2.5,1,1,0,0,0-1-.77H2.53L4.08,2.15a.44.44,0,0,1,.34-.22H15.88a.35.35,0,0,1,.34.22l1.53,3.11Z"/></g></g></g></g></svg>