<svg xmlns="http://www.w3.org/2000/svg" viewBox="0 0 17.16 17.25"><defs><style>.cls-1{fill:none;}.cls-2{fill:#fff;fill-rule:evenodd;}</style></defs><g id="Layer_2" data-name="Layer 2"><g id="Layer_1-2" data-name="Layer 1"><g id="Settings"><rect id="Rectangle_193" data-name="Rectangle 193" class="cls-1" y="0.15" width="16.64" height="16.64"/><path id="Path_104" data-name="Path 104" class="cls-2" d="M8.86,10.78A2.16,2.16,0,1,0,6.7,8.63h0A2.16,2.16,0,0,0,8.86,10.78ZM4.44,3.88A6.09,6.09,0,0,1,7,2.48L7.89,0H10l.87,2.48a7.54,7.54,0,0,1,2.58,1.4l2.59-.54,1.08,1.94L15.43,7.22a6,6,0,0,1,.11,1.4c0,.43-.11,1-.11,1.4l1.73,2-1.08,1.94-2.59-.54a6.09,6.09,0,0,1-2.58,1.4L10,17.25H7.89L7,14.77a7.54,7.54,0,0,1-2.58-1.4l-2.59.54L.77,12,2.5,10a6,6,0,0,1-.11-1.4c0-.44.11-1,.11-1.41L.77,5.28,1.85,3.34Z"/></g></g></g></svg>