<svg xmlns="http://www.w3.org/2000/svg" viewBox="0 0 14.9 14.9"><defs><style>.cls-1{fill:#fff;}</style></defs><g id="Layer_2" data-name="Layer 2"><g id="Layer_1-2" data-name="Layer 1"><g id="money"><path id="Path_219" data-name="Path 219" class="cls-1" d="M10.79,4a8.76,8.76,0,0,1-3.4-.62A4.47,4.47,0,0,1,6.68,3v.9c0,.34.4.73,1.07,1a8.71,8.71,0,0,0,6.08,0c.67-.29,1.07-.68,1.07-1V3a5.07,5.07,0,0,1-.72.4A8.75,8.75,0,0,1,10.79,4Z"/><path id="Path_220" data-name="Path 220" class="cls-1" d="M10.78,12.41a7.52,7.52,0,0,0,3-.55c.67-.29,1.08-.67,1.08-1v-.9a4.24,4.24,0,0,1-.72.4,8.58,8.58,0,0,1-3.39.63,10.84,10.84,0,0,1-1.51-.11A4.72,4.72,0,0,1,9,12.25,8.54,8.54,0,0,0,10.78,12.41Z"/><path id="Path_221" data-name="Path 221" class="cls-1" d="M8,7.33a8.18,8.18,0,0,0,2.78.45,7.83,7.83,0,0,0,3-.55c.68-.3,1.08-.68,1.08-1v-.9a5.07,5.07,0,0,1-.72.4,9.57,9.57,0,0,1-6.79,0,4.47,4.47,0,0,1-.71-.4v1A5.09,5.09,0,0,1,8,7.33Z"/><path id="Path_222" data-name="Path 222" class="cls-1" d="M10.78,10.1a7.7,7.7,0,0,0,3-.56c.67-.29,1.08-.67,1.08-1V7.62a3.65,3.65,0,0,1-.72.4,8.58,8.58,0,0,1-3.39.63,10.66,10.66,0,0,1-2-.2A4.8,4.8,0,0,1,9.23,10,10.24,10.24,0,0,0,10.78,10.1Z"/><path id="Path_223" data-name="Path 223" class="cls-1" d="M7.75,2.59a7.88,7.88,0,0,0,3,.55,7.83,7.83,0,0,0,3-.55c.68-.3,1.08-.68,1.08-1s-.4-.72-1.08-1a8.69,8.69,0,0,0-6.07,0c-.67.3-1.08.68-1.08,1S7.07,2.29,7.75,2.59Z"/><path id="Path_224" data-name="Path 224" class="cls-1" d="M8.41,10.69a4.21,4.21,0,1,0-4.2,4.21A4.2,4.2,0,0,0,8.41,10.69ZM4.86,13H4.65v.71H3.77V13H2.6v-.87H4.86a.53.53,0,1,0,0-1.05H3.81a1.36,1.36,0,0,1,0-2.71V7.66h.88v.72h.94v.87H3.81a.49.49,0,0,0,0,1H4.86a1.4,1.4,0,1,1,0,2.79Z"/></g></g></g></svg>