<svg xmlns="http://www.w3.org/2000/svg" viewBox="0 0 1131.97 1131.97"><defs><style>.cls-1{fill:#a68d67;}</style></defs><g id="Layer_2" data-name="Layer 2"><g id="Icons"><path class="cls-1" d="M1124.15,642.7S1132,615.33,1132,566a382.67,382.67,0,0,0-7.82-76.71L996.78,463.63A440.57,440.57,0,0,0,943,333.79l71.95-108.24s-13.82-24.88-48.71-59.78a382.6,382.6,0,0,0-59.77-48.71L798.18,189A440,440,0,0,0,668.35,135.2L642.7,7.82S615.33,0,566,0a382.67,382.67,0,0,0-76.71,7.82L463.62,135.2A440.09,440.09,0,0,0,333.79,189l-108.24-72s-24.88,13.82-59.78,48.71a382.39,382.39,0,0,0-48.71,59.78l72,108.24A440,440,0,0,0,135.2,463.63L7.82,489.28S0,516.64,0,566A382.67,382.67,0,0,0,7.82,642.7L135.2,668.35A440,440,0,0,0,189,798.18l-72,108.25s13.82,24.88,48.71,59.77a382.39,382.39,0,0,0,59.78,48.71L333.79,943a440.62,440.62,0,0,0,129.83,53.82l25.66,127.37S516.64,1132,566,1132a382.67,382.67,0,0,0,76.71-7.82l25.65-127.37A440.51,440.51,0,0,0,798.18,943l108.25,71.95s24.88-13.82,59.77-48.71a382.6,382.6,0,0,0,48.71-59.77L943,798.18a440.51,440.51,0,0,0,53.82-129.83ZM566,928.35c-200.13,0-362.37-162.24-362.37-362.36S365.86,203.62,566,203.62,928.35,365.86,928.35,566,766.11,928.35,566,928.35Z"/><path class="cls-1" d="M663.92,611.46l174.69-40.25V560.76L663.92,520.52a76.58,76.58,0,0,1-57.74-58.85l-34.95-166H560.74l-35,166.05a76.58,76.58,0,0,1-57.73,58.85L293.37,560.76v10.45l174.68,40.25a76.55,76.55,0,0,1,57.74,58.85l35,166.05h10.49l34.95-166.05A76.55,76.55,0,0,1,663.92,611.46Z"/><path class="cls-1" d="M713.18,490l54.06,12.46A212,212,0,0,0,626.76,363.88l11.11,52.79A166.79,166.79,0,0,1,713.18,490Z"/><path class="cls-1" d="M637.87,715.31l-11.11,52.78A211.94,211.94,0,0,0,767.24,629.57L713.18,642A166.89,166.89,0,0,1,637.87,715.31Z"/><path class="cls-1" d="M505.21,768.09,494.1,715.31A166.87,166.87,0,0,1,418.8,642l-54.07-12.46A212,212,0,0,0,505.21,768.09Z"/><path class="cls-1" d="M418.8,490a166.77,166.77,0,0,1,75.3-73.28l11.11-52.79A212,212,0,0,0,364.73,502.41Z"/><path class="cls-1" d="M602.73,249.71l9.94,47.2C725.47,316.42,814.79,405.36,834.85,518l47.38,10.92C865.2,382.79,748.88,266.58,602.73,249.71Z"/><path class="cls-1" d="M519.31,296.91l9.93-47.2C383.09,266.58,266.77,382.79,249.75,528.9L297.13,518C317.18,405.36,406.5,316.42,519.31,296.91Z"/><path class="cls-1" d="M612.67,835.07l-9.94,47.2C748.88,865.4,865.2,749.18,882.23,603.08L834.85,614C814.79,726.61,725.47,815.56,612.67,835.07Z"/><path class="cls-1" d="M297.13,614l-47.38-10.91c17,146.1,133.34,262.32,279.49,279.19l-9.93-47.2C406.5,815.56,317.18,726.61,297.13,614Z"/></g></g></svg>