<svg xmlns="http://www.w3.org/2000/svg" viewBox="0 0 1084.67 990.16"><defs><style>.cls-1{fill:#a68d67;}</style></defs><g id="Layer_2" data-name="Layer 2"><g id="Icons"><path class="cls-1" d="M1023.59,482.08c0-72.53-37.07-173.22-67.3-251.29,23.84,8.22,47.72,17.43,71.36,27.86l-23.37-56.07c-22.87-9.68-45.91-18.19-68.86-25.76-4.46-11.81-8.33-22.44-11.27-31.45-11.65-35.78,21.22-81.93,61.38-86V.44S803-15.64,819.16,145.86c-152.71-31.74-276.85-25.44-276.85-25.44s-124.12-6.29-276.8,25.42C281.71-15.64,99.14.44,99.14.44V59.37c40.16,4.07,73,50.22,61.38,86-2.94,9-6.8,19.63-11.27,31.43-23,7.58-46,16.09-68.92,25.78L57,258.65c23.66-10.44,47.57-19.66,71.43-27.88C98.16,308.84,61.08,409.55,61.08,482.08c0,274.67,194.78,499.16,466.5,507.67v.3h10.66v0c1,0,1.92.07,2.89.07.41,0,.8,0,1.2,0s.8,0,1.21,0c1,0,1.92-.07,2.89-.07v0h10.66v-.3C828.81,981.24,1023.59,756.75,1023.59,482.08Zm-303.48,12,3.94-.91V777.08a356.74,356.74,0,0,1-68.75,30.51V520.11A228.23,228.23,0,0,1,720.11,494.12Zm3.94-13.35-3.94-.91a228.23,228.23,0,0,1-64.81-26V170.32c20.88,1.66,44,4,68.75,7.21Zm-359.49-.91-3.94.91V177.52c24.78-3.22,47.87-5.55,68.75-7.2V453.87A228.23,228.23,0,0,1,364.56,479.86Zm-3.94,13.35,3.94.91a228.23,228.23,0,0,1,64.81,26V807.59a356.74,356.74,0,0,1-68.75-30.51ZM571.72,605.8a229.24,229.24,0,0,1,54.12-65v275a370.37,370.37,0,0,1-68.75,9.36V664.72C557.09,644.18,561.72,623.74,571.72,605.8ZM834.54,213.23c29.27,78.88,59.69,187.78,59.69,269.06,0,115-55.32,213.94-140.72,275.64V181.67c24.09,3.69,49.45,8.27,75.56,13.89C830.73,201.32,832.47,207.14,834.54,213.23Zm-208.7-44.92V433.14a229.37,229.37,0,0,1-53.49-63.84c-10.52-18.61-15.26-39.94-15.26-61.32V166.34C571.25,166.27,595,166.55,625.84,168.31Zm-98.26-2V308c0,21.38-4.74,42.71-15.26,61.32a229.54,229.54,0,0,1-53.49,63.84V168.3C489.67,166.55,513.44,166.27,527.58,166.34Zm-337.14,316c0-81.28,30.42-190.18,59.69-269.06,2.07-6.1,3.81-11.92,5.47-17.68,26.11-5.62,51.47-10.2,75.56-13.89V757.93C245.75,696.23,190.44,597.32,190.44,482.29ZM458.83,815.82v-275a229.4,229.4,0,0,1,54.12,65c10,17.94,14.63,38.38,14.63,58.92V825.18A370.37,370.37,0,0,1,458.83,815.82Z"/><path class="cls-1" d="M1064,480.36l-5.76,1.21c12.79,112-5.48,218.34-54.25,309.46C946.3,898.72,847.63,959,801,982.82l2.22,5.54C1143.15,901.54,1092.59,588.62,1064,480.36Z"/><path class="cls-1" d="M80.72,791C32,699.91,13.68,593.59,26.47,481.57l-5.76-1.21c-28.63,108.26-79.19,421.18,260.72,508l2.22-5.54C237,959,138.37,898.72,80.72,791Z"/></g></g></svg>