<svg xmlns="http://www.w3.org/2000/svg" viewBox="0 0 1213.65 1214.99"><defs><style>.cls-1{fill:#a68d67;}</style></defs><g id="Layer_2" data-name="Layer 2"><g id="Icons"><path class="cls-1" d="M721,972.57l-4.21-8.2C673,978.27,631,982.15,595.6,981.59a381.75,381.75,0,0,1-98.74-17.22l-4.21,8.2S603.39,1047.91,603.39,1215h7.66C611.05,1047.91,721,972.57,721,972.57Z"/><path class="cls-1" d="M242.42,722l8.2-4.2C236.72,674,232.84,632,233.4,596.62a381.46,381.46,0,0,1,17.22-98.75l-8.2-4.2S167.08,604.41,0,604.41v7.65C167.08,612.06,242.42,722,242.42,722Z"/><path class="cls-1" d="M971.22,493.67l-8.2,4.2c13.91,43.82,17.78,85.83,17.23,121.19A381.93,381.93,0,0,1,963,717.81l8.2,4.2s75.34-110.74,242.43-110.74v-7.65C1046.56,603.62,971.22,493.67,971.22,493.67Z"/><polygon class="cls-1" points="473.37 389.27 473.37 477.15 392 477.15 128.36 163.06 473.37 389.27"/><polygon class="cls-1" points="385.49 739.13 473.37 739.13 473.37 820.5 159.28 1084.15 385.49 739.13"/><path class="cls-1" d="M903.3,515.38l-37.84,19.84h-186v-186l19.83-37.84s-27.16-9.15-92.46-9.15c-54.31,0-92.46,9.15-92.46,9.15L534.2,349.2v186h-186l-37.83-19.84s-9.16,27.16-9.16,92.46c0,54.31,9.16,92.46,9.16,92.46l37.83-19.84h186v186l-19.84,37.84s27.16,9.15,92.46,9.15c54.32,0,92.46-9.15,92.46-9.15l-19.83-37.84v-186h186L903.3,700.3s9.15-27.16,9.15-92.46C912.45,553.52,903.3,515.38,903.3,515.38Z"/><polygon class="cls-1" points="739.95 389.27 739.95 477.15 821.32 477.15 1084.96 163.06 739.95 389.27"/><polygon class="cls-1" points="827.83 739.13 739.95 739.13 739.95 820.5 1054.04 1084.15 827.83 739.13"/><path class="cls-1" d="M492.65,242.42l4.21,8.2c43.81-13.9,85.82-17.78,121.18-17.22a381.39,381.39,0,0,1,98.75,17.22l4.21-8.2S610.26,167.08,610.26,0H602.6C602.6,167.08,492.65,242.42,492.65,242.42Z"/></g></g></svg>