<svg xmlns="http://www.w3.org/2000/svg" viewBox="0 0 932.74 1191.36"><defs><style>.cls-1{fill:#a68d67;}</style></defs><g id="Layer_2" data-name="Layer 2"><g id="Icons"><path class="cls-1" d="M326.09,522.49c-24.57,64.87-100.32,316.55,105,529.18l29.1,139.69h12.4l29.1-139.69C707,839,631.21,587.36,606.65,522.49l5.53-2.82c238.5,268.11-54.77,532-54.77,532C880.71,884,932.74,667.22,932.74,667.22H821.26c65-117.17,41.54-326.28,41.54-326.28l-151,5.81-26.34,38.4C618.6,220.93,466.37,0,466.37,0S314.14,220.93,247.25,385.15l-26.34-38.4-151-5.81S46.45,550.05,111.48,667.22H0S52,884,375.33,1051.67c0,0-293.27-263.89-54.77-532Zm105-24.61s23.2-102.64,32.17-193.57h6.26c9,90.93,32.17,193.57,32.17,193.57,66.89,270.78-35.3,492.65-35.3,492.65S364.18,768.66,431.07,497.88Z"/><path class="cls-1" d="M107.3,277.77S132.37,146.84,293,46.14l12,12.78c-30.83,42.15-78.64,119.53-107.12,225Z"/><path class="cls-1" d="M343.91,1087.8S201.61,1101.18,98.12,1010c0,0-63.38-51.08-64.68-186.09C33.44,823.87,87.78,999.61,343.91,1087.8Z"/><path class="cls-1" d="M639.76,46.14c160.61,100.7,185.68,231.63,185.68,231.63l-90.58,6.11c-28.48-105.43-76.29-182.81-107.12-225Z"/><path class="cls-1" d="M899.29,823.87C898,958.88,834.61,1010,834.61,1010c-103.48,91.22-245.78,77.84-245.78,77.84C845,999.61,899.29,823.87,899.29,823.87Z"/></g></g></svg>