<svg xmlns="http://www.w3.org/2000/svg" viewBox="0 0 1106.33 1042.06"><defs><style>.cls-1{fill:#a68d67;}</style></defs><g id="Layer_2" data-name="Layer 2"><g id="Icons"><path class="cls-1" d="M82.39,422a486.72,486.72,0,0,0,61.33,398l49.63-49.63,40.75-40.74a362.06,362.06,0,0,1-45.58-176.21c0-8.21.37-16.33.91-24.41l-.84-.84Z"/><path class="cls-1" d="M527.09,190.07c8.54-.6,17.13-1,25.81-1,8.4,0,16.71.39,25,.95l107-106.95a486,486,0,0,0-264.56.2L527,190Z"/><path class="cls-1" d="M348.61,553.43a203.73,203.73,0,0,0,7.37,53.7l54-54L356.1,499.25A203.9,203.9,0,0,0,348.61,553.43Z"/><path class="cls-1" d="M606.6,356.51a199.94,199.94,0,0,0-109,.42l54.31,54.32Z"/><path class="cls-1" d="M717.44,576.83l32,32a200.16,200.16,0,0,0,.11-110.28L694.32,553.7l23,23.06Z"/><path class="cls-1" d="M498,750a199.74,199.74,0,0,0,109.11.19l-54.65-54.65Z"/><path class="cls-1" d="M734.84,875.5l-4.16-4.16a363.26,363.26,0,0,1-354.43.64L324.9,923.34l-39,39a487.07,487.07,0,0,0,535.1-.69L735.55,876.2Z"/><path class="cls-1" d="M949.35,806.33l13.11,13.11a486.72,486.72,0,0,0,60.76-398.17L916.31,528.18c.58,8.35,1,16.76,1,25.25A362.1,362.1,0,0,1,872.06,729l76.52,76.52Z"/><path class="cls-1" d="M1089.26,17.08C1052.7-19.47,1020.67,14,1020.67,14s20.53,9.47,41.35,30.29a168.89,168.89,0,0,1,30.29,41.36S1125.81,53.63,1089.26,17.08Z"/><path class="cls-1" d="M1073.53,315.9l-84.17,7.28c-13.87-29.47-35.61-58.63-54-80.56l141.95-141.95s-9.46-20.54-30.29-41.36C1030.57,42.85,1005.67,29,1005.67,29l-142,142c-21.93-18.4-51.09-40.14-80.55-54l7.28-84.17-16,.29L614,193.54s65.37,5.67,142.07,54.81L165.71,838.68,126.4,979.94l141.25-39.32L858,350.28c46.46,71.14,54.33,140.49,54.33,140.49l160.92-158.85ZM599.67,517.15l-14.42,3.93,3.94-14.42L805,290.85l10.48,10.48Z"/><path class="cls-1" d="M85.67,14s-32-33.49-68.59,3.06S14,85.67,14,85.67A168.89,168.89,0,0,1,44.31,44.31C65.13,23.49,85.67,14,85.67,14Z"/><path class="cls-1" d="M476.61,487.1,290.85,301.33l10.48-10.48L487.1,476.61l45.72-45.72L350.28,248.35c76.7-49.14,142.08-54.81,142.08-54.81L331.91,33.1l-16-.29L323.18,117c-29.47,13.86-58.63,35.6-80.56,54L100.67,29S75.76,42.85,59.31,59.31C38.48,80.13,29,100.67,29,100.67l142,142c-18.4,21.93-40.14,51.09-54,80.56L32.81,315.9l.29,16L194,490.77s7.88-69.35,54.34-140.49L430.89,532.82l.52-.52Z"/><polygon class="cls-1" points="979.94 979.94 940.62 838.68 674.83 572.89 589.39 658.33 588.63 659.1 572.89 674.83 838.68 940.62 979.94 979.94"/></g></g></svg>