<svg xmlns="http://www.w3.org/2000/svg" viewBox="0 0 1105 1172.72"><defs><style>.cls-1{fill:#a68d67;}</style></defs><g id="Layer_2" data-name="Layer 2"><g id="Icons"><path class="cls-1" d="M607.64,273.08a7.55,7.55,0,0,1,11.71-6l49.59,33.62,5.54-4.68L554.19,3.93V0l-.75,2-.75-2V3.93L432.4,296l5.54,4.68,49.59-33.62a7.55,7.55,0,0,1,11.71,6l41.22,788.25-70.66,99.43c4.62,6.23,4.24,5.73,8.85,12l74.79-30.16,74.79,30.16,8.85-12-70.66-99.43Z"/><path class="cls-1" d="M647.92,352.47l-4.81.83L624,563.57c53,9.82,95.85,28.68,130.6,52.56L615.79,1012.62l13.76,6,171.8-362.8c81.46,84.44,97.73,196.37,102,226.46L615.9,1080.64l16.81,22.17L1105,792.46l-1.76-19.09-130-80.25c-19.14-52.6-56.55-110.71-114-159.47L910.1,426.21a5.76,5.76,0,0,1,10.09-.61l25.48,39.45,5.32-1.6-.31-245.61,1.15-2.8-1.11,1.17,0-1.64-1.14,2.8-171,170.31,2.58,5.07,45.13-8.41a6,6,0,0,1,6.58,7.94l-34.42,98.34a465.79,465.79,0,0,0-110.8-46.74h0Z"/><path class="cls-1" d="M489.86,1081.16,201.63,882.33c4.29-30.09,20.56-142,102-226.46l171.79,362.8,13.76-6L350.43,616.13c34.75-23.88,77.62-42.74,130.61-52.56h0L461.89,353.3l-4.82-.83-39.77,91.4h0a465.44,465.44,0,0,0-110.8,46.74l-34.42-98.34a6,6,0,0,1,6.58-7.94l45.12,8.41,2.58-5.07-171-170.31-1.15-2.8,0,1.64L153.17,215l1.15,2.8L154,463.45l5.31,1.6,25.49-39.45a5.76,5.76,0,0,1,10.09.61l50.87,107.44c-57.47,48.76-94.88,106.87-114,159.47l-130,80.25L0,792.46l473.06,310.86Z"/></g></g></svg>