<svg xmlns="http://www.w3.org/2000/svg" viewBox="0 0 1216 1276.93"><defs><style>.cls-1{fill:#a68d67;}</style></defs><g id="Layer_2" data-name="Layer 2"><g id="Icons"><path class="cls-1" d="M248,520.93l-.08,0c16.27-113,76.92-194.38,100-221.91l-3.67-4.56C256.71,337,198.53,441,198.53,441,208.36,339,279,250.73,313.6,213l-3.84-4.52C185.21,285.64,103.33,414.33,95.31,578.38L241.11,560A374.87,374.87,0,0,1,248,520.93Z"/><path class="cls-1" d="M460.66,919.16S542.52,1147.6,572,1276.93l5.93-3.19a33.22,33.22,0,0,0,17.27-25.6L608,1132.37l12.81,115.77a33.25,33.25,0,0,0,17.28,25.6l5.93,3.19c29.46-129.33,111.32-357.77,111.32-357.77,76.94-197.34,203.08-217.27,203.08-217.27L1216,633.56a40.73,40.73,0,0,0-33.92-20.21c-102.73-3.31-211.31-17.47-211.31-17.47C867,582.75,855.2,496,855.2,496L807.72,233.16C779.89,73.41,842.1,0,842.1,0,704.59,40.93,722.6,270.12,722.6,270.12l13.09,176.81c-63.7-57.2-86.11-137.12-92.63-167.6l-5.16,0L608,410.91,578.1,279.35l-5.16,0c-6.53,30.48-28.93,110.4-92.63,167.6L493.4,270.12S511.41,40.93,373.89,0c0,0,62.21,73.41,34.38,233.16L360.8,496S349,582.75,245.22,595.88c0,0-108.57,14.16-211.3,17.47A40.72,40.72,0,0,0,0,633.56l257.58,68.33S383.72,721.82,460.66,919.16Zm18-388.74,119.51,55.66s-1.64,27.83-31.11,31.1L608,751.43l40.93-134.25c-29.47-3.27-31.11-31.1-31.11-31.1l119.51-55.66c76.4,128.24,28,193.32-30.13,225.83a204.25,204.25,0,0,1-198.41,0C450.68,723.74,402.27,658.66,478.67,530.42Z"/><path class="cls-1" d="M535.15,598.36c-54.84,34-21.69,117.87-21.69,117.87h-6.14c-56.89-74.9-4.91-134.65-4.91-134.65Z"/><path class="cls-1" d="M417.67,923.55c13.9,43.29,46,139.14,63.53,191.45C286,1064.54,138.78,902.54,103,700.56l162.06,42.83A375,375,0,0,0,417.67,923.55Z"/><path class="cls-1" d="M581,148c0-41.13,27-86.56,27-86.56s27,45.43,27,86.56c0,32.33-27,126.47-27,126.47S581,180.28,581,148Z"/><path class="cls-1" d="M708.68,716.23h-6.14s33.15-83.9-21.69-117.87l32.74-16.78S765.57,641.33,708.68,716.23Z"/><path class="cls-1" d="M968,520.93l.08,0c-16.27-113-76.92-194.38-100-221.91l3.67-4.56C959.29,337,1017.47,441,1017.47,441,1007.64,339,937,250.73,902.4,213l3.84-4.52c124.55,77.13,206.42,205.82,214.45,369.87L974.89,560A377.52,377.52,0,0,0,968,520.93Z"/><path class="cls-1" d="M951,743.39,1113,700.56c-35.79,202-183,364-378.21,414.44,17.55-52.31,49.63-148.16,63.53-191.45A375,375,0,0,0,951,743.39Z"/></g></g></svg>