<svg xmlns="http://www.w3.org/2000/svg" viewBox="0 0 1087.04 1233.68"><defs><style>.cls-1{fill:#a68d67;}</style></defs><g id="Layer_2" data-name="Layer 2"><g id="Icons"><path class="cls-1" d="M823.36,362.67s104.76,86.84,155.22,213.47c76.82,192.81,13.31,382.18-46.32,460.2,0,0,233.12-156.64,127.16-441.6C1001.47,438.9,823.36,362.67,823.36,362.67Z"/><polygon class="cls-1" points="510.78 379.25 549.06 421.36 474.82 532.36 449.54 543.18 255.6 392.01 267.26 298.73 504.91 104.08 772.34 305.25 779.67 445.46 773.62 474.94 478.89 805.4 552.89 902.02 519.58 1217.94 479.98 1233.68 440.22 917.25 337.26 799.02 649.86 411.15 504.56 282.71 406.16 374.15 449.54 421.36 510.78 379.25"/><path class="cls-1" d="M360.09,0C331.54,44.45,336,116.47,391.62,153.91l60.9-49.83C366.86,76.57,360.09,0,360.09,0Z"/><path class="cls-1" d="M214.73,698.22c0-56.68,19.87-108.83,53.17-150.42h0S113.41,620.48,119.46,848.24c0,0-81.73-202.78,83-439.64C93.57,476.64,0,636.1,0,757.41c0,168.93,114.32,316.07,276.18,384.47,6.11,4.29,9.83,6.74,9.83,6.74L92.08,1174.13l352.24,41.22L409.38,937.29C297.72,911.32,214.73,814.17,214.73,698.22Z"/><path class="cls-1" d="M840,1031.07l-.05,0c68.46-73.35,109.72-167.81,109.72-270.93,0-67.33-18.37-131.1-54.35-186.53-15.42-23.75-46.62-73.65-72-110.32l-6,29.09L766,549.91c111.34,214.94-9.88,324-9.88,324,22.46-133.57-25.52-224.49-48.31-258.72l-.65.73c11.84,31.51,16.77,59.87,16.18,82.34A252,252,0,0,1,587.25,915.6l-31.56,299.27,348.07-40.74-193.94-25.51S789.77,1096.49,840,1031.07Z"/></g></g></svg>