<svg id="Layer_1" enable-background="new 0 0 512 512" height="512" viewBox="0 0 512 512" width="512" xmlns="http://www.w3.org/2000/svg"><g><g><path d="m480 401.333h-448c-8.837 0-16-7.163-16-16v-161.333c0-61.856 50.144-112 112-112h256c61.856 0 112 50.144 112 112v161.333c0 8.837-7.163 16-16 16z" fill="#a55023"/></g><g><path d="m288 401.333h-256c-8.837 0-16-7.163-16-16v-161.333c0-61.856 50.144-112 112-112h64c61.856 0 112 50.144 112 112v161.333c0 8.837-7.163 16-16 16z" fill="#d26e28"/></g><g><path d="m32 385.333v-161.333c0-52.935 43.065-96 96-96h64c52.935 0 96 43.065 96 96v161.333z" fill="#fab991"/></g><g><g><circle cx="247.711" cy="255.344" fill="#f0915a" r="13.333"/></g><g><circle cx="233.044" cy="278.011" fill="#f0915a" r="4"/></g><g><circle cx="225.333" cy="230.667" fill="#f0915a" r="4"/></g><g><circle cx="154.667" cy="285.333" fill="#f0915a" r="8"/></g><g><circle cx="253.044" cy="314.011" fill="#f0915a" r="8"/></g></g><g><g><circle cx="154.667" cy="160" fill="#f0915a" r="13.333"/></g></g><g><g><circle cx="90.667" cy="272" fill="#f0915a" r="13.333"/></g><g><circle cx="110.667" cy="321.333" fill="#f0915a" r="4"/></g><g><circle cx="92" cy="212" fill="#f0915a" r="4"/></g><g><circle cx="66.667" cy="341.333" fill="#f0915a" r="8"/></g><g><circle cx="130.667" cy="357.333" fill="#f0915a" r="8"/></g></g></g></svg>