<svg xmlns="http://www.w3.org/2000/svg" viewBox="0 0 100 100"><defs><style>.cls-1{fill:#d1a587;}.cls-2{fill:#e86e44;}.cls-3{fill:#457d79;}.cls-4{fill:#483331;}</style></defs><g id="Layer_2" data-name="Layer 2"><g id="Layer_3" data-name="Layer 3"><rect x="93.75" y="68.75" width="6.25" height="6.25"/><rect x="87.5" y="75" width="6.25" height="6.25"/><rect class="cls-1" x="87.5" y="68.75" width="6.25" height="6.25"/><rect x="87.5" y="62.5" width="6.25" height="6.25"/><rect x="87.5" y="12.5" width="6.25" height="6.25"/><rect x="81.25" y="81.25" width="6.25" height="6.25"/><rect class="cls-1" x="81.25" y="75" width="6.25" height="6.25"/><rect class="cls-1" x="81.25" y="68.75" width="6.25" height="6.25"/><rect class="cls-1" x="81.25" y="62.5" width="6.25" height="6.25"/><rect x="81.25" y="56.25" width="6.25" height="6.25"/><rect x="81.25" y="18.75" width="6.25" height="6.25"/><rect class="cls-1" x="81.25" y="12.5" width="6.25" height="6.25"/><rect x="81.25" y="6.25" width="6.25" height="6.25"/><rect x="75" y="93.75" width="6.25" height="6.25"/><rect x="75" y="87.5" width="6.25" height="6.25"/><rect x="75" y="81.25" width="6.25" height="6.25"/><rect x="75" y="75" width="6.25" height="6.25"/><rect class="cls-1" x="75" y="68.75" width="6.25" height="6.25"/><rect class="cls-1" x="75" y="62.5" width="6.25" height="6.25"/><rect class="cls-1" x="75" y="56.25" width="6.25" height="6.25"/><rect x="75" y="50" width="6.25" height="6.25"/><rect x="75" y="25" width="6.25" height="6.25"/><rect class="cls-1" x="75" y="18.75" width="6.25" height="6.25"/><rect class="cls-1" x="75" y="12.5" width="6.25" height="6.25"/><rect class="cls-1" x="75" y="6.25" width="6.25" height="6.25"/><rect x="75" width="6.25" height="6.25"/><rect x="68.75" y="93.75" width="6.25" height="6.25"/><rect class="cls-2" x="68.75" y="87.5" width="6.25" height="6.25"/><rect class="cls-2" x="68.75" y="81.25" width="6.25" height="6.25"/><rect class="cls-2" x="68.75" y="75" width="6.25" height="6.25"/><rect x="68.75" y="68.75" width="6.25" height="6.25"/><rect class="cls-1" x="68.75" y="62.5" width="6.25" height="6.25"/><rect class="cls-1" x="68.75" y="56.25" width="6.25" height="6.25"/><rect class="cls-1" x="68.75" y="50" width="6.25" height="6.25"/><rect x="68.75" y="43.75" width="6.25" height="6.25"/><rect x="68.75" y="31.25" width="6.25" height="6.25"/><rect class="cls-1" x="68.75" y="25" width="6.25" height="6.25"/><rect class="cls-1" x="68.75" y="18.75" width="6.25" height="6.25"/><rect class="cls-1" x="68.75" y="12.5" width="6.25" height="6.25"/><rect x="68.75" y="6.25" width="6.25" height="6.25"/><rect x="62.5" y="93.75" width="6.25" height="6.25"/><rect class="cls-2" x="62.5" y="87.5" width="6.25" height="6.25"/><rect class="cls-2" x="62.5" y="81.25" width="6.25" height="6.25"/><rect class="cls-2" x="62.5" y="75" width="6.25" height="6.25"/><rect class="cls-2" x="62.5" y="68.75" width="6.25" height="6.25"/><rect x="62.5" y="62.5" width="6.25" height="6.25"/><rect class="cls-1" x="62.5" y="56.25" width="6.25" height="6.25"/><rect class="cls-1" x="62.5" y="50" width="6.25" height="6.25"/><rect class="cls-1" x="62.5" y="43.75" width="6.25" height="6.25"/><rect x="62.5" y="37.5" width="6.25" height="6.25"/><rect class="cls-1" x="62.5" y="31.25" width="6.25" height="6.25"/><rect class="cls-1" x="62.5" y="25" width="6.25" height="6.25"/><rect class="cls-1" x="62.5" y="18.75" width="6.25" height="6.25"/><rect x="62.5" y="12.5" width="6.25" height="6.25"/><rect x="56.25" y="93.75" width="6.25" height="6.25"/><rect x="56.25" y="87.5" width="6.25" height="6.25"/><rect x="56.25" y="81.25" width="6.25" height="6.25"/><rect x="56.25" y="75" width="6.25" height="6.25"/><rect class="cls-2" x="56.25" y="68.75" width="6.25" height="6.25"/><rect class="cls-2" x="56.25" y="62.5" width="6.25" height="6.25"/><rect x="56.25" y="56.25" width="6.25" height="6.25"/><rect class="cls-1" x="56.25" y="50" width="6.25" height="6.25"/><rect class="cls-1" x="56.25" y="43.75" width="6.25" height="6.25"/><rect x="56.25" y="37.5" width="6.25" height="6.25"/><rect class="cls-1" x="56.25" y="31.25" width="6.25" height="6.25"/><rect class="cls-1" x="56.25" y="25" width="6.25" height="6.25"/><rect x="56.25" y="18.75" width="6.25" height="6.25"/><rect x="50" y="93.75" width="6.25" height="6.25"/><rect class="cls-3" x="50" y="87.5" width="6.25" height="6.25"/><rect class="cls-3" x="50" y="81.25" width="6.25" height="6.25"/><rect x="50" y="75" width="6.25" height="6.25"/><rect class="cls-2" x="50" y="68.75" width="6.25" height="6.25"/><rect class="cls-2" x="50" y="62.5" width="6.25" height="6.25"/><rect class="cls-2" x="50" y="56.25" width="6.25" height="6.25"/><rect x="50" y="50" width="6.25" height="6.25"/><rect class="cls-4" x="50" y="43.75" width="6.25" height="6.25"/><rect class="cls-4" x="50" y="37.5" width="6.25" height="6.25"/><rect class="cls-1" x="50" y="31.25" width="6.25" height="6.25"/><rect x="50" y="25" width="6.25" height="6.25"/><rect x="43.75" y="93.75" width="6.25" height="6.25"/><rect x="43.75" y="87.5" width="6.25" height="6.25"/><rect x="43.75" y="81.25" width="6.25" height="6.25"/><rect x="43.75" y="75" width="6.25" height="6.25"/><rect class="cls-2" x="43.75" y="68.75" width="6.25" height="6.25"/><rect class="cls-2" x="43.75" y="62.5" width="6.25" height="6.25"/><rect x="43.75" y="56.25" width="6.25" height="6.25"/><rect class="cls-1" x="43.75" y="50" width="6.25" height="6.25"/><rect class="cls-4" x="43.75" y="43.75" width="6.25" height="6.25"/><rect class="cls-4" x="43.75" y="37.5" width="6.25" height="6.25"/><rect x="43.75" y="31.25" width="6.25" height="6.25"/><rect x="37.5" y="93.75" width="6.25" height="6.25"/><rect class="cls-2" x="37.5" y="87.5" width="6.25" height="6.25"/><rect class="cls-2" x="37.5" y="81.25" width="6.25" height="6.25"/><rect class="cls-2" x="37.5" y="75" width="6.25" height="6.25"/><rect class="cls-2" x="37.5" y="68.75" width="6.25" height="6.25"/><rect x="37.5" y="62.5" width="6.25" height="6.25"/><rect class="cls-1" x="37.5" y="56.25" width="6.25" height="6.25"/><rect class="cls-1" x="37.5" y="50" width="6.25" height="6.25"/><rect x="37.5" y="43.75" width="6.25" height="6.25"/><rect class="cls-1" x="37.5" y="37.5" width="6.25" height="6.25"/><rect class="cls-1" x="37.5" y="31.25" width="6.25" height="6.25"/><rect x="37.5" y="25" width="6.25" height="6.25"/><rect x="31.25" y="93.75" width="6.25" height="6.25"/><rect class="cls-2" x="31.25" y="87.5" width="6.25" height="6.25"/><rect class="cls-2" x="31.25" y="81.25" width="6.25" height="6.25"/><rect class="cls-2" x="31.25" y="75" width="6.25" height="6.25"/><rect x="31.25" y="68.75" width="6.25" height="6.25"/><rect class="cls-1" x="31.25" y="62.5" width="6.25" height="6.25"/><rect class="cls-1" x="31.25" y="56.25" width="6.25" height="6.25"/><rect class="cls-1" x="31.25" y="50" width="6.25" height="6.25"/><rect x="31.25" y="43.75" width="6.25" height="6.25"/><rect class="cls-1" x="31.25" y="37.5" width="6.25" height="6.25"/><rect class="cls-1" x="31.25" y="31.25" width="6.25" height="6.25"/><rect class="cls-1" x="31.25" y="25" width="6.25" height="6.25"/><rect x="31.25" y="18.75" width="6.25" height="6.25"/><rect x="25" y="93.75" width="6.25" height="6.25"/><rect x="25" y="87.5" width="6.25" height="6.25"/><rect x="25" y="81.25" width="6.25" height="6.25"/><rect x="25" y="75" width="6.25" height="6.25"/><rect class="cls-1" x="25" y="68.75" width="6.25" height="6.25"/><rect class="cls-1" x="25" y="62.5" width="6.25" height="6.25"/><rect class="cls-1" x="25" y="56.25" width="6.25" height="6.25"/><rect x="25" y="50" width="6.25" height="6.25"/><rect x="25" y="37.5" width="6.25" height="6.25"/><rect class="cls-1" x="25" y="31.25" width="6.25" height="6.25"/><rect class="cls-1" x="25" y="25" width="6.25" height="6.25"/><rect class="cls-1" x="25" y="18.75" width="6.25" height="6.25"/><rect x="25" y="12.5" width="6.25" height="6.25"/><rect x="18.75" y="81.25" width="6.25" height="6.25"/><rect class="cls-1" x="18.75" y="75" width="6.25" height="6.25"/><rect class="cls-1" x="18.75" y="68.75" width="6.25" height="6.25"/><rect class="cls-1" x="18.75" y="62.5" width="6.25" height="6.25"/><rect x="18.75" y="56.25" width="6.25" height="6.25"/><rect x="18.75" y="31.25" width="6.25" height="6.25"/><rect class="cls-1" x="18.75" y="25" width="6.25" height="6.25"/><rect class="cls-1" x="18.75" y="18.75" width="6.25" height="6.25"/><rect class="cls-1" x="18.75" y="12.5" width="6.25" height="6.25"/><rect x="18.75" y="6.25" width="6.25" height="6.25"/><rect x="12.5" y="75" width="6.25" height="6.25"/><rect class="cls-1" x="12.5" y="68.75" width="6.25" height="6.25"/><rect x="12.5" y="62.5" width="6.25" height="6.25"/><rect x="12.5" y="25" width="6.25" height="6.25"/><rect class="cls-1" x="12.5" y="18.75" width="6.25" height="6.25"/><rect class="cls-1" x="12.5" y="12.5" width="6.25" height="6.25"/><rect class="cls-1" x="12.5" y="6.25" width="6.25" height="6.25"/><rect x="12.5" width="6.25" height="6.25"/><rect x="6.25" y="68.75" width="6.25" height="6.25"/><rect x="6.25" y="18.75" width="6.25" height="6.25"/><rect class="cls-1" x="6.25" y="12.5" width="6.25" height="6.25"/><rect x="6.25" y="6.25" width="6.25" height="6.25"/><rect y="12.5" width="6.25" height="6.25"/></g></g></svg>