<svg xmlns="http://www.w3.org/2000/svg" viewBox="0 0 100 114.29"><defs><style>.cls-1{fill:gray;}.cls-2{fill:#999;}.cls-3{fill:#a2d4d2;}.cls-4{fill:#51bdbf;}.cls-5{fill:#4d4d4d;}.cls-6{fill:#333;}</style></defs><g id="Layer_2" data-name="Layer 2"><g id="Layer_3" data-name="Layer 3"><rect x="92.86" y="107.14" width="7.14" height="7.14"/><rect x="92.86" y="100" width="7.14" height="7.14"/><rect x="92.86" y="92.86" width="7.14" height="7.14"/><rect x="92.86" y="85.71" width="7.14" height="7.14"/><rect x="92.86" y="78.57" width="7.14" height="7.14"/><rect x="92.86" y="71.43" width="7.14" height="7.14"/><rect x="92.86" y="64.29" width="7.14" height="7.14"/><rect x="92.86" y="57.14" width="7.14" height="7.14"/><rect x="92.86" y="50" width="7.14" height="7.14"/><rect x="92.86" y="42.86" width="7.14" height="7.14"/><rect x="92.86" y="35.71" width="7.14" height="7.14"/><rect x="92.86" y="28.57" width="7.14" height="7.14"/><rect x="92.86" y="21.43" width="7.14" height="7.14"/><rect x="92.86" y="14.29" width="7.14" height="7.14"/><rect x="92.86" y="7.14" width="7.14" height="7.14"/><rect x="85.71" y="107.14" width="7.14" height="7.14"/><rect class="cls-1" x="85.71" y="100" width="7.14" height="7.14"/><rect class="cls-2" x="85.71" y="92.86" width="7.14" height="7.14"/><rect class="cls-2" x="85.71" y="85.71" width="7.14" height="7.14"/><rect class="cls-1" x="85.71" y="78.57" width="7.14" height="7.14"/><rect class="cls-2" x="85.71" y="71.43" width="7.14" height="7.14"/><rect class="cls-2" x="85.71" y="64.29" width="7.14" height="7.14"/><rect class="cls-1" x="85.71" y="57.14" width="7.14" height="7.14"/><rect class="cls-2" x="85.71" y="50" width="7.14" height="7.14"/><rect class="cls-2" x="85.71" y="42.86" width="7.14" height="7.14"/><rect class="cls-1" x="85.71" y="35.71" width="7.14" height="7.14"/><rect class="cls-2" x="85.71" y="28.57" width="7.14" height="7.14"/><rect class="cls-2" x="85.71" y="21.43" width="7.14" height="7.14"/><rect class="cls-2" x="85.71" y="14.29" width="7.14" height="7.14"/><rect x="85.71" y="7.14" width="7.14" height="7.14"/><rect x="85.71" width="7.14" height="7.14"/><rect x="78.57" y="107.14" width="7.14" height="7.14"/><rect class="cls-1" x="78.57" y="100" width="7.14" height="7.14"/><rect class="cls-3" x="78.57" y="92.86" width="7.14" height="7.14"/><rect class="cls-4" x="78.57" y="85.71" width="7.14" height="7.14"/><rect class="cls-1" x="78.57" y="78.57" width="7.14" height="7.14"/><rect class="cls-3" x="78.57" y="71.43" width="7.14" height="7.14"/><rect class="cls-4" x="78.57" y="64.29" width="7.14" height="7.14"/><rect class="cls-1" x="78.57" y="57.14" width="7.14" height="7.14"/><rect class="cls-3" x="78.57" y="50" width="7.14" height="7.14"/><rect class="cls-4" x="78.57" y="42.86" width="7.14" height="7.14"/><rect class="cls-1" x="78.57" y="35.71" width="7.14" height="7.14"/><rect class="cls-3" x="78.57" y="28.57" width="7.14" height="7.14"/><rect class="cls-4" x="78.57" y="21.43" width="7.14" height="7.14"/><rect class="cls-2" x="78.57" y="14.29" width="7.14" height="7.14"/><rect class="cls-5" x="78.57" y="7.14" width="7.14" height="7.14"/><rect x="78.57" width="7.14" height="7.14"/><rect x="71.43" y="107.14" width="7.14" height="7.14"/><rect class="cls-1" x="71.43" y="100" width="7.14" height="7.14"/><rect class="cls-3" x="71.43" y="92.86" width="7.14" height="7.14"/><rect class="cls-4" x="71.43" y="85.71" width="7.14" height="7.14"/><rect class="cls-1" x="71.43" y="78.57" width="7.14" height="7.14"/><rect class="cls-3" x="71.43" y="71.43" width="7.14" height="7.14"/><rect class="cls-4" x="71.43" y="64.29" width="7.14" height="7.14"/><rect class="cls-1" x="71.43" y="57.14" width="7.14" height="7.14"/><rect class="cls-3" x="71.43" y="50" width="7.14" height="7.14"/><rect class="cls-4" x="71.43" y="42.86" width="7.14" height="7.14"/><rect class="cls-1" x="71.43" y="35.71" width="7.14" height="7.14"/><rect class="cls-3" x="71.43" y="28.57" width="7.14" height="7.14"/><rect class="cls-4" x="71.43" y="21.43" width="7.14" height="7.14"/><rect class="cls-2" x="71.43" y="14.29" width="7.14" height="7.14"/><rect class="cls-5" x="71.43" y="7.14" width="7.14" height="7.14"/><rect x="71.43" width="7.14" height="7.14"/><rect x="64.29" y="107.14" width="7.14" height="7.14"/><rect class="cls-1" x="64.29" y="100" width="7.14" height="7.14"/><rect class="cls-2" x="64.29" y="92.86" width="7.14" height="7.14"/><rect class="cls-2" x="64.29" y="85.71" width="7.14" height="7.14"/><rect class="cls-1" x="64.29" y="78.57" width="7.14" height="7.14"/><rect class="cls-2" x="64.29" y="71.43" width="7.14" height="7.14"/><rect class="cls-2" x="64.29" y="64.29" width="7.14" height="7.14"/><rect class="cls-1" x="64.29" y="57.14" width="7.14" height="7.14"/><rect class="cls-2" x="64.29" y="50" width="7.14" height="7.14"/><rect class="cls-2" x="64.29" y="42.86" width="7.14" height="7.14"/><rect class="cls-1" x="64.29" y="35.71" width="7.14" height="7.14"/><rect class="cls-2" x="64.29" y="28.57" width="7.14" height="7.14"/><rect class="cls-2" x="64.29" y="21.43" width="7.14" height="7.14"/><rect class="cls-2" x="64.29" y="14.29" width="7.14" height="7.14"/><rect class="cls-5" x="64.29" y="7.14" width="7.14" height="7.14"/><rect x="64.29" width="7.14" height="7.14"/><rect x="57.14" y="107.14" width="7.14" height="7.14"/><rect class="cls-6" x="57.14" y="100" width="7.14" height="7.14"/><rect class="cls-6" x="57.14" y="92.86" width="7.14" height="7.14"/><rect class="cls-6" x="57.14" y="85.71" width="7.14" height="7.14"/><rect class="cls-1" x="57.14" y="78.57" width="7.14" height="7.14"/><rect class="cls-2" x="57.14" y="71.43" width="7.14" height="7.14"/><rect class="cls-2" x="57.14" y="64.29" width="7.14" height="7.14"/><rect class="cls-1" x="57.14" y="57.14" width="7.14" height="7.14"/><rect class="cls-2" x="57.14" y="50" width="7.14" height="7.14"/><rect class="cls-2" x="57.14" y="42.86" width="7.14" height="7.14"/><rect class="cls-1" x="57.14" y="35.71" width="7.14" height="7.14"/><rect class="cls-2" x="57.14" y="28.57" width="7.14" height="7.14"/><rect class="cls-2" x="57.14" y="21.43" width="7.14" height="7.14"/><rect class="cls-2" x="57.14" y="14.29" width="7.14" height="7.14"/><rect class="cls-5" x="57.14" y="7.14" width="7.14" height="7.14"/><rect x="57.14" width="7.14" height="7.14"/><rect x="50" y="107.14" width="7.14" height="7.14"/><rect class="cls-6" x="50" y="100" width="7.14" height="7.14"/><rect class="cls-6" x="50" y="92.86" width="7.14" height="7.14"/><rect class="cls-6" x="50" y="85.71" width="7.14" height="7.14"/><rect class="cls-1" x="50" y="78.57" width="7.14" height="7.14"/><rect class="cls-3" x="50" y="71.43" width="7.14" height="7.14"/><rect class="cls-4" x="50" y="64.29" width="7.14" height="7.14"/><rect class="cls-1" x="50" y="57.14" width="7.14" height="7.14"/><rect class="cls-3" x="50" y="50" width="7.14" height="7.14"/><rect class="cls-4" x="50" y="42.86" width="7.14" height="7.14"/><rect class="cls-1" x="50" y="35.71" width="7.14" height="7.14"/><rect class="cls-3" x="50" y="28.57" width="7.14" height="7.14"/><rect class="cls-4" x="50" y="21.43" width="7.14" height="7.14"/><rect class="cls-2" x="50" y="14.29" width="7.14" height="7.14"/><rect class="cls-5" x="50" y="7.14" width="7.14" height="7.14"/><rect x="50" width="7.14" height="7.14"/><rect x="42.86" y="107.14" width="7.14" height="7.14"/><rect class="cls-6" x="42.86" y="100" width="7.14" height="7.14"/><rect class="cls-6" x="42.86" y="92.86" width="7.14" height="7.14"/><rect class="cls-6" x="42.86" y="85.71" width="7.14" height="7.14"/><rect class="cls-1" x="42.86" y="78.57" width="7.14" height="7.14"/><rect class="cls-3" x="42.86" y="71.43" width="7.14" height="7.14"/><rect class="cls-4" x="42.86" y="64.29" width="7.14" height="7.14"/><rect class="cls-1" x="42.86" y="57.14" width="7.14" height="7.14"/><rect class="cls-3" x="42.86" y="50" width="7.14" height="7.14"/><rect class="cls-4" x="42.86" y="42.86" width="7.14" height="7.14"/><rect class="cls-1" x="42.86" y="35.71" width="7.14" height="7.14"/><rect class="cls-3" x="42.86" y="28.57" width="7.14" height="7.14"/><rect class="cls-4" x="42.86" y="21.43" width="7.14" height="7.14"/><rect class="cls-2" x="42.86" y="14.29" width="7.14" height="7.14"/><rect class="cls-5" x="42.86" y="7.14" width="7.14" height="7.14"/><rect x="42.86" width="7.14" height="7.14"/><rect x="35.71" y="107.14" width="7.14" height="7.14"/><rect class="cls-6" x="35.71" y="100" width="7.14" height="7.14"/><rect class="cls-6" x="35.71" y="92.86" width="7.14" height="7.14"/><rect class="cls-6" x="35.71" y="85.71" width="7.14" height="7.14"/><rect class="cls-1" x="35.71" y="78.57" width="7.14" height="7.14"/><rect class="cls-2" x="35.71" y="71.43" width="7.14" height="7.14"/><rect class="cls-2" x="35.71" y="64.29" width="7.14" height="7.14"/><rect class="cls-1" x="35.71" y="57.14" width="7.14" height="7.14"/><rect class="cls-2" x="35.71" y="50" width="7.14" height="7.14"/><rect class="cls-2" x="35.71" y="42.86" width="7.14" height="7.14"/><rect class="cls-1" x="35.71" y="35.71" width="7.14" height="7.14"/><rect class="cls-2" x="35.71" y="28.57" width="7.14" height="7.14"/><rect class="cls-2" x="35.71" y="21.43" width="7.14" height="7.14"/><rect class="cls-2" x="35.71" y="14.29" width="7.14" height="7.14"/><rect class="cls-5" x="35.71" y="7.14" width="7.14" height="7.14"/><rect x="35.71" width="7.14" height="7.14"/><rect x="28.57" y="107.14" width="7.14" height="7.14"/><rect class="cls-1" x="28.57" y="100" width="7.14" height="7.14"/><rect class="cls-2" x="28.57" y="92.86" width="7.14" height="7.14"/><rect class="cls-2" x="28.57" y="85.71" width="7.14" height="7.14"/><rect class="cls-1" x="28.57" y="78.57" width="7.14" height="7.14"/><rect class="cls-2" x="28.57" y="71.43" width="7.14" height="7.14"/><rect class="cls-2" x="28.57" y="64.29" width="7.14" height="7.14"/><rect class="cls-1" x="28.57" y="57.14" width="7.14" height="7.14"/><rect class="cls-2" x="28.57" y="50" width="7.14" height="7.14"/><rect class="cls-2" x="28.57" y="42.86" width="7.14" height="7.14"/><rect class="cls-1" x="28.57" y="35.71" width="7.14" height="7.14"/><rect class="cls-2" x="28.57" y="28.57" width="7.14" height="7.14"/><rect class="cls-2" x="28.57" y="21.43" width="7.14" height="7.14"/><rect class="cls-2" x="28.57" y="14.29" width="7.14" height="7.14"/><rect class="cls-5" x="28.57" y="7.14" width="7.14" height="7.14"/><rect x="28.57" width="7.14" height="7.14"/><rect x="21.43" y="107.14" width="7.14" height="7.14"/><rect class="cls-1" x="21.43" y="100" width="7.14" height="7.14"/><rect class="cls-3" x="21.43" y="92.86" width="7.14" height="7.14"/><rect class="cls-4" x="21.43" y="85.71" width="7.14" height="7.14"/><rect class="cls-1" x="21.43" y="78.57" width="7.14" height="7.14"/><rect class="cls-3" x="21.43" y="71.43" width="7.14" height="7.14"/><rect class="cls-4" x="21.43" y="64.29" width="7.14" height="7.14"/><rect class="cls-1" x="21.43" y="57.14" width="7.14" height="7.14"/><rect class="cls-3" x="21.43" y="50" width="7.14" height="7.14"/><rect class="cls-4" x="21.43" y="42.86" width="7.14" height="7.14"/><rect class="cls-1" x="21.43" y="35.71" width="7.14" height="7.14"/><rect class="cls-3" x="21.43" y="28.57" width="7.14" height="7.14"/><rect class="cls-4" x="21.43" y="21.43" width="7.14" height="7.14"/><rect class="cls-2" x="21.43" y="14.29" width="7.14" height="7.14"/><rect class="cls-5" x="21.43" y="7.14" width="7.14" height="7.14"/><rect x="21.43" width="7.14" height="7.14"/><rect x="14.29" y="107.14" width="7.14" height="7.14"/><rect class="cls-1" x="14.29" y="100" width="7.14" height="7.14"/><rect class="cls-3" x="14.29" y="92.86" width="7.14" height="7.14"/><rect class="cls-4" x="14.29" y="85.71" width="7.14" height="7.14"/><rect class="cls-1" x="14.29" y="78.57" width="7.14" height="7.14"/><rect class="cls-3" x="14.29" y="71.43" width="7.14" height="7.14"/><rect class="cls-4" x="14.29" y="64.29" width="7.14" height="7.14"/><rect class="cls-1" x="14.29" y="57.14" width="7.14" height="7.14"/><rect class="cls-3" x="14.29" y="50" width="7.14" height="7.14"/><rect class="cls-4" x="14.29" y="42.86" width="7.14" height="7.14"/><rect class="cls-1" x="14.29" y="35.71" width="7.14" height="7.14"/><rect class="cls-3" x="14.29" y="28.57" width="7.14" height="7.14"/><rect class="cls-4" x="14.29" y="21.43" width="7.14" height="7.14"/><rect class="cls-2" x="14.29" y="14.29" width="7.14" height="7.14"/><rect class="cls-5" x="14.29" y="7.14" width="7.14" height="7.14"/><rect x="14.29" width="7.14" height="7.14"/><rect x="7.14" y="107.14" width="7.14" height="7.14"/><rect class="cls-1" x="7.14" y="100" width="7.14" height="7.14"/><rect class="cls-2" x="7.14" y="92.86" width="7.14" height="7.14"/><rect class="cls-2" x="7.14" y="85.71" width="7.14" height="7.14"/><rect class="cls-1" x="7.14" y="78.57" width="7.14" height="7.14"/><rect class="cls-2" x="7.14" y="71.43" width="7.14" height="7.14"/><rect class="cls-2" x="7.14" y="64.29" width="7.14" height="7.14"/><rect class="cls-1" x="7.14" y="57.14" width="7.14" height="7.14"/><rect class="cls-2" x="7.14" y="50" width="7.14" height="7.14"/><rect class="cls-2" x="7.14" y="42.86" width="7.14" height="7.14"/><rect class="cls-1" x="7.14" y="35.71" width="7.14" height="7.14"/><rect class="cls-2" x="7.14" y="28.57" width="7.14" height="7.14"/><rect class="cls-2" x="7.14" y="21.43" width="7.14" height="7.14"/><rect class="cls-2" x="7.14" y="14.29" width="7.14" height="7.14"/><rect x="7.14" y="7.14" width="7.14" height="7.14"/><rect x="7.14" width="7.14" height="7.14"/><rect y="107.14" width="7.14" height="7.14"/><rect y="100" width="7.14" height="7.14"/><rect y="92.86" width="7.14" height="7.14"/><rect y="85.71" width="7.14" height="7.14"/><rect y="78.57" width="7.14" height="7.14"/><rect y="71.43" width="7.14" height="7.14"/><rect y="64.29" width="7.14" height="7.14"/><rect y="57.14" width="7.14" height="7.14"/><rect y="50" width="7.14" height="7.14"/><rect y="42.86" width="7.14" height="7.14"/><rect y="35.71" width="7.14" height="7.14"/><rect y="28.57" width="7.14" height="7.14"/><rect y="21.43" width="7.14" height="7.14"/><rect y="14.29" width="7.14" height="7.14"/><rect y="7.14" width="7.14" height="7.14"/></g></g></svg>