<svg xmlns="http://www.w3.org/2000/svg" viewBox="0 0 1242.09 1135.66"><defs><style>.cls-1{fill:#a68d67;}</style></defs><g id="Layer_2" data-name="Layer 2"><g id="Icons"><path class="cls-1" d="M1239.32,0,946.19,489.66l19.72-74.43s-52.1-115.37-219.57-250.59l-31-5V438.8l-29.78-26.05V143.55l23.57-9.92L621.05,79.05,533,133.63l23.57,9.92v269.2L526.77,438.8V159.68l-31,5C328.28,299.86,276.18,415.23,276.18,415.23l19.72,74.43L2.77,0C.3,49.74-1.39,116.65,1.57,186.34L151.26,388.53l-4.38,3.53L3.94,233.19c3.64,51.19,10.16,97.26,21.12,142.59L160,500l-3.57,4.34L36.49,421.56C50.23,465,69,503.53,92.94,546.2c5.39,7.94,8.74,12.51,8.74,12.51l107.86,64.2-2.49,5-85.93-29.51c40,58.63,95.77,116.52,157.54,166.62v98.69a95.77,95.77,0,0,1-12.28,46.91l-21.21,37.7,306.41,187.31L566.46,634.8H430c-65.75-45.9-71.95-111.65-71.95-111.65h191a29.27,29.27,0,0,1,7-38.39l5.39-4.2,59.55,98.83,59.54-98.83,5.4,4.2a29.29,29.29,0,0,1,7,38.39H884s-6.21,65.75-71.95,111.65H675.63l14.88,500.86L996.92,948.35l-21.2-37.7a95.67,95.67,0,0,1-12.29-46.91V765.05C1025.2,715,1081,657.06,1121,598.43L1035,627.94c-1.54-3.11-1-1.92-2.48-5l107.85-64.2s3.35-4.57,8.74-12.51c23.91-42.67,42.71-81.25,56.45-124.64l-119.92,82.79-3.57-4.34L1217,375.78c11-45.33,17.48-91.4,21.12-142.59L1095.21,392.06l-4.38-3.53,149.69-202.19C1243.48,116.65,1241.79,49.74,1239.32,0Z"/></g></g></svg>